<?xml version="1.0" encoding="UTF-8" standalone="no"?><!DOCTYPE svg PUBLIC "-//W3C//DTD SVG 1.1//EN" "http://www.w3.org/Graphics/SVG/1.1/DTD/svg11.dtd"><svg width="100%" height="100%" viewBox="0 0 32 32" version="1.1" xmlns="http://www.w3.org/2000/svg" xmlns:xlink="http://www.w3.org/1999/xlink" xml:space="preserve" xmlns:serif="http://www.serif.com/" style="fill-rule:evenodd;clip-rule:evenodd;stroke-linecap:round;stroke-linejoin:round;stroke-miterlimit:1.5;"><g><path d="M15.511,21.157l-9.443,0l2.361,-10.899l4.721,-0l2.361,10.899Z" style="fill:#fff;fill-opacity:0;stroke:#000;stroke-width:0.23px;"/><path d="M11.958,8.789c-0.041,0.035 -0.086,0.061 -0.131,0.077c-0.029,0.073 -0.096,0.151 -0.189,0.2c-0.092,0.05 -0.198,0.065 -0.281,0.052c-0.065,0.05 -0.165,0.086 -0.272,0.086c-0.107,0 -0.206,-0.036 -0.272,-0.086c-0.083,0.013 -0.188,-0.002 -0.281,-0.052c-0.093,-0.049 -0.16,-0.127 -0.189,-0.2c-0.08,-0.028 -0.163,-0.09 -0.216,-0.176c-0.054,-0.086 -0.07,-0.184 -0.056,-0.261c-0.054,-0.061 -0.093,-0.153 -0.093,-0.253c0,-0.099 0.039,-0.192 0.093,-0.252c-0.014,-0.078 0.002,-0.176 0.056,-0.262c0.053,-0.086 0.136,-0.148 0.216,-0.175c0.029,-0.074 0.096,-0.151 0.189,-0.201c0.093,-0.05 0.198,-0.065 0.281,-0.052c0.066,-0.05 0.165,-0.086 0.272,-0.086c0.034,0 0.067,0.004 0.098,0.01c0.018,-0.065 0.043,-0.126 0.073,-0.18c0.002,-0.13 0.038,-0.275 0.113,-0.405c0.075,-0.13 0.183,-0.233 0.294,-0.3c0.067,-0.112 0.171,-0.22 0.301,-0.295c0.13,-0.075 0.275,-0.11 0.405,-0.112c0.113,-0.063 0.257,-0.105 0.407,-0.105c0.15,-0 0.294,0.042 0.407,0.105c0.13,0.002 0.275,0.037 0.406,0.112c0.13,0.075 0.233,0.183 0.3,0.295c0.111,0.067 0.219,0.17 0.294,0.3c0.075,0.13 0.111,0.275 0.113,0.405c0.063,0.114 0.105,0.257 0.105,0.408c-0,0.15 -0.042,0.293 -0.105,0.407c-0.002,0.13 -0.038,0.275 -0.113,0.405c-0.075,0.13 -0.183,0.233 -0.294,0.3c-0.067,0.112 -0.17,0.22 -0.3,0.295c-0.131,0.075 -0.276,0.11 -0.406,0.112c-0.113,0.063 -0.257,0.105 -0.407,0.105c-0.15,0 -0.294,-0.042 -0.407,-0.105c-0.13,-0.002 -0.275,-0.037 -0.405,-0.112l-0.006,-0.004Z" style="fill:#fff;fill-opacity:0;stroke:#000;stroke-width:0.31px;"/></g><path d="M23.802,19.224l-0,1.933l-3.378,0l-0,-1.933" style="fill:#fff;fill-opacity:0;stroke:#000;stroke-width:0.17px;"/><path d="M22.113,16.973l2.114,2.251l-4.228,0l2.114,-2.251Z" style="fill:#fff;fill-opacity:0;stroke:#000;stroke-width:0.17px;"/><rect x="21.739" y="20.111" width="0.748" height="1.046" style="fill:#fff;fill-opacity:0;stroke:#000;stroke-width:0.17px;"/><path d="M18.046,16.619l-0.033,4.538" style="fill:none;stroke:#000;stroke-width:0.18px;"/><path d="M17.117,17.152l1.858,-0" style="fill:none;stroke:#000;stroke-width:0.18px;"/><path d="M18.975,17.152c0.119,0.401 0.418,0.698 0.837,0.896c0.664,0.321 0.769,0.279 0.976,0.312" style="fill:none;stroke:#000;stroke-width:0.1px;"/><path d="M23.664,18.625l-0,-0.582l0.415,-0l0,1.024" style="fill-opacity:0;stroke:#000;stroke-width:0.15px;"/><path d="M23.886,16.917c-0,-0.031 0.027,-0.057 0.059,-0.057c0.033,0 0.06,0.026 0.06,0.057c0.016,-0.027 0.053,-0.036 0.081,-0.021c0.029,0.016 0.038,0.051 0.022,0.079c0.028,-0.016 0.065,-0.007 0.081,0.02c0.017,0.028 0.007,0.063 -0.022,0.079c0.033,-0 0.06,0.025 0.06,0.057c-0,0.031 -0.027,0.057 -0.06,0.057c0.029,0.016 0.039,0.051 0.022,0.078c-0.016,0.027 -0.053,0.037 -0.081,0.021c0.016,0.027 0.007,0.062 -0.022,0.078c-0.028,0.016 -0.065,0.006 -0.081,-0.021c-0,0.032 -0.027,0.057 -0.06,0.057c-0.032,0 -0.059,-0.025 -0.059,-0.057c-0.017,0.027 -0.053,0.037 -0.081,0.021c-0.029,-0.016 -0.039,-0.051 -0.022,-0.078c-0.029,0.016 -0.065,0.006 -0.081,-0.021c-0.017,-0.027 -0.007,-0.062 0.021,-0.078c-0.032,-0 -0.059,-0.026 -0.059,-0.057c-0,-0.032 0.027,-0.057 0.059,-0.057c-0.028,-0.016 -0.038,-0.051 -0.021,-0.079c0.016,-0.027 0.052,-0.036 0.081,-0.02c-0.017,-0.028 -0.007,-0.063 0.022,-0.079c0.028,-0.015 0.064,-0.006 0.081,0.021Z" style="fill-opacity:0;stroke:#000;stroke-width:0.15px;"/><path d="M23.664,18.625l0.415,0.442" style="fill:none;stroke:#000;stroke-width:0.1px;"/><path d="M23.664,18.625l0.415,0.442" style="fill:none;stroke:#000;stroke-width:0.1px;"/><path d="M23.664,18.625l0.415,0.442" style="fill:none;stroke:#000;stroke-width:0.1px;"/><path d="M24.305,16.044c-0,-0.024 0.017,-0.044 0.038,-0.044c0.021,-0 0.039,0.02 0.039,0.044c0.01,-0.021 0.034,-0.028 0.052,-0.016c0.018,0.012 0.024,0.038 0.014,0.059c0.018,-0.012 0.042,-0.005 0.052,0.016c0.011,0.021 0.005,0.048 -0.014,0.06c0.021,-0 0.039,0.019 0.039,0.043c-0,0.024 -0.018,0.044 -0.039,0.044c0.019,0.012 0.025,0.039 0.014,0.059c-0.01,0.021 -0.034,0.028 -0.052,0.016c0.01,0.021 0.004,0.048 -0.014,0.06c-0.018,0.012 -0.042,0.005 -0.052,-0.016c-0,0.024 -0.018,0.044 -0.039,0.044c-0.021,-0 -0.038,-0.02 -0.038,-0.044c-0.011,0.021 -0.034,0.028 -0.052,0.016c-0.019,-0.012 -0.025,-0.039 -0.014,-0.06c-0.019,0.012 -0.042,0.005 -0.053,-0.016c-0.01,-0.02 -0.004,-0.047 0.014,-0.059c-0.021,-0 -0.038,-0.02 -0.038,-0.044c0,-0.024 0.017,-0.043 0.038,-0.043c-0.018,-0.012 -0.024,-0.039 -0.014,-0.06c0.011,-0.021 0.034,-0.028 0.053,-0.016c-0.011,-0.021 -0.005,-0.047 0.014,-0.059c0.018,-0.012 0.041,-0.005 0.052,0.016Z" style="fill-opacity:0;stroke:#000;stroke-opacity:0.76;stroke-width:0.15px;"/><path d="M24.836,15.411c-0,-0.021 0.018,-0.038 0.041,-0.038c0.023,-0 0.041,0.017 0.041,0.038c0.012,-0.018 0.037,-0.024 0.057,-0.014c0.019,0.011 0.026,0.034 0.015,0.052c0.019,-0.011 0.044,-0.004 0.056,0.014c0.011,0.018 0.004,0.041 -0.015,0.052c0.022,-0 0.041,0.017 0.041,0.038c-0,0.021 -0.019,0.038 -0.041,0.038c0.019,0.01 0.026,0.033 0.015,0.051c-0.012,0.019 -0.037,0.025 -0.056,0.014c0.011,0.018 0.004,0.042 -0.015,0.052c-0.02,0.011 -0.045,0.004 -0.057,-0.014c0,0.021 -0.018,0.038 -0.041,0.038c-0.023,0 -0.041,-0.017 -0.041,-0.038c-0.011,0.018 -0.037,0.025 -0.056,0.014c-0.02,-0.01 -0.027,-0.034 -0.015,-0.052c-0.02,0.011 -0.045,0.005 -0.057,-0.014c-0.011,-0.018 -0.004,-0.041 0.015,-0.051c-0.022,-0 -0.041,-0.017 -0.041,-0.038c0,-0.021 0.019,-0.038 0.041,-0.038c-0.019,-0.011 -0.026,-0.034 -0.015,-0.052c0.012,-0.018 0.037,-0.025 0.057,-0.014c-0.012,-0.018 -0.005,-0.041 0.015,-0.052c0.019,-0.01 0.045,-0.004 0.056,0.014Z" style="fill-opacity:0;stroke:#000;stroke-opacity:0.59;stroke-width:0.15px;"/><path d="M17.085,17.131c-0.121,0.431 -0.563,0.939 -1.008,1.227c-0.438,0.12 -0.82,0.098 -1.171,0" style="fill:none;stroke:#000;stroke-width:0.08px;"/></svg>