<?xml version="1.0" encoding="UTF-8" standalone="no"?><!DOCTYPE svg PUBLIC "-//W3C//DTD SVG 1.1//EN" "http://www.w3.org/Graphics/SVG/1.1/DTD/svg11.dtd"><svg width="100%" height="100%" viewBox="0 0 32 32" version="1.1" xmlns="http://www.w3.org/2000/svg" xmlns:xlink="http://www.w3.org/1999/xlink" xml:space="preserve" xmlns:serif="http://www.serif.com/" style="fill-rule:evenodd;clip-rule:evenodd;stroke-linecap:round;stroke-linejoin:round;stroke-miterlimit:1.5;"><g><path d="M15.901,32l-15.901,-0l3.975,-22.653l7.951,-0l3.975,22.653Z" style="fill:#808080;stroke:#000;stroke-width:0.23px;"/><path d="M9.918,6.295c-0.069,0.073 -0.145,0.127 -0.22,0.158c-0.05,0.154 -0.162,0.314 -0.318,0.418c-0.156,0.103 -0.334,0.134 -0.474,0.107c-0.11,0.104 -0.278,0.179 -0.458,0.179c-0.18,-0 -0.347,-0.075 -0.457,-0.179c-0.141,0.027 -0.318,-0.004 -0.475,-0.107c-0.156,-0.104 -0.268,-0.264 -0.317,-0.418c-0.134,-0.057 -0.274,-0.185 -0.365,-0.364c-0.09,-0.179 -0.117,-0.383 -0.093,-0.544c-0.091,-0.126 -0.156,-0.318 -0.156,-0.525c-0,-0.206 0.065,-0.398 0.156,-0.524c-0.024,-0.161 0.003,-0.365 0.093,-0.544c0.091,-0.179 0.231,-0.308 0.365,-0.364c0.049,-0.154 0.161,-0.314 0.317,-0.418c0.157,-0.103 0.334,-0.134 0.475,-0.107c0.11,-0.104 0.277,-0.179 0.457,-0.179c0.057,-0 0.112,0.007 0.165,0.021c0.03,-0.136 0.073,-0.262 0.123,-0.374c0.004,-0.27 0.064,-0.572 0.19,-0.842c0.127,-0.271 0.309,-0.486 0.496,-0.624c0.113,-0.232 0.287,-0.456 0.506,-0.613c0.219,-0.156 0.463,-0.229 0.682,-0.234c0.191,-0.131 0.433,-0.218 0.686,-0.218c0.252,0 0.494,0.087 0.685,0.218c0.219,0.005 0.464,0.078 0.683,0.234c0.219,0.157 0.393,0.381 0.505,0.613c0.188,0.138 0.37,0.353 0.496,0.624c0.127,0.27 0.186,0.572 0.19,0.842c0.106,0.236 0.177,0.534 0.177,0.846c-0,0.312 -0.071,0.611 -0.177,0.847c-0.004,0.269 -0.063,0.571 -0.19,0.842c-0.126,0.27 -0.308,0.485 -0.496,0.624c-0.112,0.231 -0.286,0.456 -0.505,0.612c-0.219,0.156 -0.464,0.23 -0.683,0.234c-0.191,0.131 -0.433,0.218 -0.685,0.218c-0.253,0 -0.495,-0.087 -0.686,-0.218c-0.219,-0.004 -0.463,-0.078 -0.682,-0.234l-0.01,-0.007Z" style="fill:#fff;stroke:#000;stroke-width:0.31px;"/></g><path d="M29.862,27.983l-0,4.017l-5.689,0l-0,-4.017" style="fill:#b6aca2;stroke:#000;stroke-width:0.17px;"/><path d="M27.017,23.303l3.56,4.68l-7.119,-0l3.559,-4.68Z" style="fill:#b00;stroke:#000;stroke-width:0.17px;"/><rect x="26.388" y="29.826" width="1.259" height="2.174" style="fill:#9e5300;stroke:#000;stroke-width:0.17px;"/><path d="M20.169,22.569l-0.055,9.431" style="fill:none;stroke:#000;stroke-width:0.18px;"/><path d="M18.604,23.675l3.13,-0" style="fill:none;stroke:#000;stroke-width:0.18px;"/><path d="M21.734,23.675c0.2,0.835 0.704,1.451 1.408,1.864c1.119,0.665 1.296,0.58 1.645,0.647" style="fill:none;stroke:#000;stroke-width:0.1px;"/><path d="M29.629,26.737l0,-1.21l0.699,0l0,2.129" style="fill:#600000;stroke:#000;stroke-width:0.15px;"/><path d="M30.003,23.188c-0,-0.066 0.045,-0.119 0.1,-0.119c0.055,0 0.1,0.053 0.1,0.119c0.028,-0.057 0.089,-0.076 0.137,-0.044c0.048,0.033 0.064,0.106 0.037,0.163c0.047,-0.033 0.109,-0.014 0.136,0.043c0.028,0.057 0.012,0.13 -0.036,0.163c0.055,-0 0.1,0.053 0.1,0.118c-0,0.066 -0.045,0.119 -0.1,0.119c0.048,0.033 0.064,0.106 0.036,0.162c-0.027,0.057 -0.089,0.077 -0.136,0.044c0.027,0.057 0.011,0.129 -0.037,0.162c-0.048,0.033 -0.109,0.013 -0.137,-0.043c0,0.065 -0.045,0.119 -0.1,0.119c-0.055,-0 -0.1,-0.054 -0.1,-0.119c-0.028,0.056 -0.089,0.076 -0.137,0.043c-0.048,-0.033 -0.064,-0.105 -0.037,-0.162c-0.048,0.033 -0.109,0.013 -0.136,-0.044c-0.028,-0.056 -0.012,-0.129 0.036,-0.162c-0.055,0 -0.1,-0.053 -0.1,-0.119c0,-0.065 0.045,-0.118 0.1,-0.118c-0.048,-0.033 -0.064,-0.106 -0.036,-0.163c0.027,-0.057 0.088,-0.076 0.136,-0.043c-0.027,-0.057 -0.011,-0.13 0.037,-0.163c0.048,-0.032 0.109,-0.013 0.137,0.044Z" style="fill-opacity:0;stroke:#000;stroke-width:0.15px;"/><path d="M29.629,26.737l0.699,0.919" style="fill:none;stroke:#000;stroke-width:0.1px;"/><path d="M29.629,26.737l0.699,0.919" style="fill:none;stroke:#000;stroke-width:0.1px;"/><path d="M29.629,26.737l0.699,0.919" style="fill:none;stroke:#000;stroke-width:0.1px;"/><path d="M30.709,21.372c-0,-0.05 0.028,-0.091 0.064,-0.091c0.036,0 0.065,0.041 0.065,0.091c0.017,-0.043 0.057,-0.058 0.088,-0.033c0.03,0.025 0.041,0.08 0.023,0.124c0.031,-0.025 0.071,-0.011 0.088,0.033c0.018,0.043 0.008,0.098 -0.023,0.123c0.035,0 0.064,0.041 0.064,0.091c0,0.05 -0.029,0.091 -0.064,0.091c0.031,0.025 0.041,0.08 0.023,0.123c-0.017,0.044 -0.057,0.059 -0.088,0.034c0.018,0.043 0.007,0.098 -0.023,0.123c-0.031,0.025 -0.071,0.011 -0.088,-0.033c-0,0.05 -0.029,0.091 -0.065,0.091c-0.036,-0 -0.064,-0.041 -0.064,-0.091c-0.018,0.044 -0.058,0.058 -0.089,0.033c-0.03,-0.025 -0.041,-0.08 -0.023,-0.123c-0.031,0.025 -0.07,0.01 -0.088,-0.034c-0.018,-0.043 -0.007,-0.098 0.023,-0.123c-0.035,-0 -0.064,-0.041 -0.064,-0.091c-0,-0.05 0.029,-0.091 0.064,-0.091c-0.03,-0.025 -0.041,-0.08 -0.023,-0.123c0.018,-0.044 0.057,-0.058 0.088,-0.033c-0.018,-0.044 -0.007,-0.099 0.023,-0.124c0.031,-0.025 0.071,-0.01 0.089,0.033Z" style="fill-opacity:0;stroke:#000;stroke-opacity:0.76;stroke-width:0.15px;"/><path d="M31.602,20.057c0,-0.044 0.032,-0.079 0.07,-0.079c0.038,0 0.069,0.035 0.069,0.079c0.019,-0.038 0.062,-0.051 0.095,-0.029c0.033,0.022 0.044,0.07 0.025,0.108c0.033,-0.022 0.076,-0.009 0.095,0.029c0.019,0.037 0.008,0.086 -0.025,0.108c0.038,-0 0.069,0.035 0.069,0.078c-0,0.044 -0.031,0.079 -0.069,0.079c0.033,0.022 0.044,0.07 0.025,0.108c-0.019,0.038 -0.062,0.051 -0.095,0.029c0.019,0.038 0.008,0.086 -0.025,0.108c-0.033,0.021 -0.076,0.008 -0.095,-0.029c0,0.043 -0.031,0.079 -0.069,0.079c-0.038,-0 -0.07,-0.036 -0.07,-0.079c-0.019,0.037 -0.061,0.05 -0.094,0.029c-0.033,-0.022 -0.045,-0.07 -0.026,-0.108c-0.033,0.022 -0.075,0.009 -0.094,-0.029c-0.019,-0.038 -0.008,-0.086 0.025,-0.108c-0.038,0 -0.069,-0.035 -0.069,-0.079c-0,-0.043 0.031,-0.078 0.069,-0.078c-0.033,-0.022 -0.044,-0.071 -0.025,-0.108c0.019,-0.038 0.061,-0.051 0.094,-0.029c-0.019,-0.038 -0.007,-0.086 0.026,-0.108c0.033,-0.022 0.075,-0.009 0.094,0.029Z" style="fill-opacity:0;stroke:#000;stroke-opacity:0.59;stroke-width:0.15px;"/><path d="M18.551,23.631c-0.204,0.897 -0.948,1.952 -1.697,2.551c-0.738,0.25 -1.381,0.203 -1.972,0" style="fill:none;stroke:#000;stroke-width:0.08px;"/></svg>