<svg xmlns="http://www.w3.org/2000/svg" xml:space="preserve" fill-rule="evenodd" stroke-linecap="round" stroke-linejoin="round" stroke-miterlimit="1.5" clip-rule="evenodd" viewBox="0 0 6 9" style="background-color: #222;" fill="none" stroke="#fff"><path stroke-width=".5" d="M3.13 8.061H.25l.72-4.32h1.44l.72 4.32Zm0-1.44h2.402v1.44H3.13zm0 0v-.99h1.771l.631.99H3.13Z"/><path stroke-width=".1" d="M1.919 1.75c0-.061.05-.11.113-.11.062 0 .113.049.113.11a.113.113 0 0 1 .154-.04.11.11 0 0 1 .041.151.116.116 0 0 1 .155.041.11.11 0 0 1-.042.151c.063 0 .113.05.113.111s-.05.111-.113.111a.11.11 0 0 1 .042.151.116.116 0 0 1-.155.041.11.11 0 0 1-.041.151.114.114 0 0 1-.154-.041.112.112 0 0 1-.113.111.112.112 0 0 1-.113-.111.116.116 0 0 1-.155.041.11.11 0 0 1-.041-.151.114.114 0 0 1-.154-.041.108.108 0 0 1 .041-.151.112.112 0 0 1-.113-.111c0-.061.051-.111.113-.111a.108.108 0 0 1-.041-.151.114.114 0 0 1 .154-.041.11.11 0 0 1 .041-.151.115.115 0 0 1 .155.04ZM2.758.745c0-.045.038-.081.085-.081.046 0 .084.036.084.081a.087.087 0 0 1 .116-.03.08.08 0 0 1 .031.11.086.086 0 0 1 .115.03.08.08 0 0 1-.031.11c.047 0 .085.036.085.08a.084.084 0 0 1-.085.081c.04.022.054.071.031.11a.087.087 0 0 1-.115.029.08.08 0 0 1-.031.11.087.087 0 0 1-.116-.03.083.083 0 0 1-.084.081.083.083 0 0 1-.085-.081.086.086 0 0 1-.115.03.08.08 0 0 1-.031-.11.087.087 0 0 1-.115-.029.077.077 0 0 1 .031-.11.084.084 0 0 1-.085-.081c0-.044.038-.08.085-.08-.041-.023-.055-.072-.031-.11a.086.086 0 0 1 .115-.03.08.08 0 0 1 .031-.11.086.086 0 0 1 .115.03Zm.69-.642c0-.029.024-.053.054-.053.031 0 .055.024.055.053a.057.057 0 0 1 .075-.02.052.052 0 0 1 .021.073.056.056 0 0 1 .075.019.051.051 0 0 1-.021.072c.031 0 .055.024.055.053a.054.054 0 0 1-.055.053.051.051 0 0 1 .021.072.056.056 0 0 1-.075.019.051.051 0 0 1-.021.072.056.056 0 0 1-.075-.019.054.054 0 0 1-.055.053.054.054 0 0 1-.054-.053.056.056 0 0 1-.075.019.051.051 0 0 1-.021-.072.056.056 0 0 1-.075-.019.052.052 0 0 1 .02-.072A.054.054 0 0 1 3.243.3c0-.029.024-.053.054-.053a.052.052 0 0 1-.02-.072.056.056 0 0 1 .075-.019.052.052 0 0 1 .021-.073.057.057 0 0 1 .075.02Z"/></svg>
